<?xml version="1.0" encoding="utf-8"?>
<!-- Generator: Adobe Illustrator 22.1.0, SVG Export Plug-In . SVG Version: 6.00 Build 0)  -->
<svg version="1.1" xmlns="http://www.w3.org/2000/svg" xmlns:xlink="http://www.w3.org/1999/xlink" x="0px" y="0px"
	 viewBox="0 0 882.4 376.1" style="enable-background:new 0 0 882.4 376.1;" xml:space="preserve">
<style type="text/css">
	.st0{fill:#1D1D1B;}
	.st1{fill:#292FD6;}
	.st2{fill:#FF6C00;}
	.st3{fill:none;stroke:#1D1D1B;stroke-width:10;stroke-miterlimit:10;stroke-dasharray:29.7995,29.7995;}
	.st4{fill:#FFEC00;}
	.st5{fill:#E84E1B;}
	.st6{fill:#FF4E6A;}
	.st7{fill:#7D85FF;}
	.st8{fill:#00E173;}
	.st9{fill:#F5F5F5;}
	.st10{fill:#7288FF;}
	.st11{fill:#9E9FBF;}
	.st12{fill:#BEB980;}
	.st13{fill:#DFD240;}
	.st14{fill:url(#SVGID_1_);}
	.st15{fill:#8B90E3;}
	.st16{fill:#9A9CC6;}
	.st17{fill:#A8A7AA;}
	.st18{fill:#B7B38E;}
	.st19{fill:#C5BE71;}
	.st20{fill:#D4CA55;}
	.st21{fill:#E2D539;}
	.st22{fill:#F1E11C;}
	.st23{fill:#6F8FEF;}
	.st24{fill:#6199E0;}
	.st25{fill:#53A4D0;}
	.st26{fill:#45AEC1;}
	.st27{fill:#38B8B1;}
	.st28{fill:#2AC2A2;}
	.st29{fill:#1CCD92;}
	.st30{fill:#0ED783;}
	.st31{fill:#8B82E3;}
	.st32{fill:#9A7FC6;}
	.st33{fill:#A87DAA;}
	.st34{fill:#B77A8E;}
	.st35{fill:#C57771;}
	.st36{fill:#D47455;}
	.st37{fill:#E27239;}
	.st38{fill:#F16F1C;}
	.st39{opacity:0.9;fill:#292FD6;}
	.st40{fill:url(#SVGID_2_);}
	.st41{fill:url(#SVGID_3_);}
	.st42{fill:url(#SVGID_4_);}
	.st43{fill:url(#SVGID_5_);}
	.st44{fill:url(#SVGID_6_);}
	.st45{fill:url(#SVGID_7_);}
	.st46{fill:url(#SVGID_8_);}
	.st47{fill:url(#SVGID_9_);}
	.st48{fill:url(#SVGID_10_);}
	.st49{fill:url(#SVGID_11_);}
	.st50{fill:url(#SVGID_12_);}
	.st51{fill:url(#SVGID_13_);}
	.st52{fill:url(#SVGID_14_);}
	.st53{fill:url(#SVGID_15_);}
	.st54{fill:url(#SVGID_16_);}
	.st55{fill:url(#SVGID_17_);}
	.st56{fill:url(#SVGID_18_);}
	.st57{fill:url(#SVGID_19_);}
	.st58{fill:url(#SVGID_20_);}
	.st59{fill:url(#SVGID_21_);}
	.st60{fill:url(#SVGID_22_);}
	.st61{fill:url(#SVGID_23_);}
	.st62{fill:url(#SVGID_24_);}
	.st63{fill:url(#SVGID_25_);}
	.st64{fill:url(#SVGID_26_);}
	.st65{fill:url(#SVGID_27_);}
	.st66{fill:url(#SVGID_28_);}
	.st67{fill:url(#SVGID_29_);}
	.st68{fill:url(#SVGID_30_);}
	.st69{fill:url(#SVGID_31_);}
	.st70{fill:url(#SVGID_32_);}
	.st71{fill:url(#SVGID_33_);}
	.st72{fill:url(#SVGID_34_);}
	.st73{fill:url(#SVGID_35_);}
	.st74{fill:url(#SVGID_36_);}
	.st75{fill:url(#SVGID_37_);}
	.st76{fill:url(#SVGID_38_);}
	.st77{fill:url(#SVGID_39_);}
	.st78{fill:url(#SVGID_40_);}
	.st79{fill:url(#SVGID_41_);}
	.st80{fill:url(#SVGID_42_);}
	.st81{fill:url(#SVGID_43_);}
	.st82{fill:url(#SVGID_44_);}
	.st83{fill:url(#SVGID_45_);}
	.st84{fill:url(#SVGID_46_);}
	.st85{fill:url(#SVGID_47_);}
	.st86{fill:url(#SVGID_48_);}
	.st87{fill:url(#SVGID_49_);}
	.st88{fill:url(#SVGID_50_);}
	.st89{fill:url(#SVGID_51_);}
	.st90{fill:url(#SVGID_52_);}
	.st91{fill:url(#SVGID_53_);}
	.st92{fill:url(#SVGID_54_);}
	.st93{fill:url(#SVGID_55_);}
	.st94{fill:url(#SVGID_56_);}
	.st95{fill:url(#SVGID_57_);}
	.st96{fill:url(#SVGID_58_);}
	.st97{fill:url(#SVGID_59_);}
	.st98{fill:url(#SVGID_60_);}
	.st99{fill:url(#SVGID_61_);}
	.st100{fill:url(#SVGID_62_);}
	.st101{fill:url(#SVGID_63_);}
	.st102{fill:url(#SVGID_64_);}
	.st103{fill:url(#SVGID_65_);}
	.st104{fill:url(#SVGID_66_);}
	.st105{fill:url(#SVGID_67_);}
	.st106{fill:url(#SVGID_68_);}
	.st107{fill:url(#SVGID_69_);}
	.st108{fill:url(#SVGID_70_);}
	.st109{fill:url(#SVGID_71_);}
	.st110{fill:url(#SVGID_72_);}
	.st111{fill:url(#SVGID_73_);}
	.st112{fill:url(#SVGID_74_);}
	.st113{fill:url(#SVGID_75_);}
	.st114{fill:url(#SVGID_76_);}
	.st115{fill:url(#SVGID_77_);}
	.st116{fill:url(#SVGID_78_);}
	.st117{fill:url(#SVGID_79_);}
	.st118{fill:url(#SVGID_80_);}
	.st119{fill:url(#SVGID_81_);}
	.st120{fill:url(#SVGID_82_);}
	.st121{fill:url(#SVGID_83_);}
	.st122{fill:url(#SVGID_84_);}
	.st123{fill:url(#SVGID_85_);}
	.st124{fill:url(#SVGID_86_);}
	.st125{fill:url(#SVGID_87_);}
	.st126{fill:url(#SVGID_88_);}
	.st127{fill:url(#SVGID_89_);}
	.st128{fill:url(#SVGID_90_);}
	.st129{fill:url(#SVGID_91_);}
	.st130{fill:url(#SVGID_92_);}
	.st131{fill:url(#SVGID_93_);}
	.st132{fill:url(#SVGID_94_);}
	.st133{fill:url(#SVGID_95_);}
	.st134{fill:url(#SVGID_96_);}
	.st135{fill:url(#SVGID_97_);}
	.st136{fill:url(#SVGID_98_);}
	.st137{fill:url(#SVGID_99_);}
	.st138{fill:url(#SVGID_100_);}
	.st139{fill:url(#SVGID_101_);}
	.st140{fill:url(#SVGID_102_);}
	.st141{fill:url(#SVGID_103_);}
	.st142{fill:url(#SVGID_104_);}
	.st143{fill:url(#SVGID_105_);}
	.st144{fill:url(#SVGID_106_);}
	.st145{fill:url(#SVGID_107_);}
	.st146{fill:url(#SVGID_108_);}
	.st147{fill:url(#SVGID_109_);}
	.st148{fill:url(#SVGID_110_);}
	.st149{fill:url(#SVGID_111_);}
	.st150{fill:url(#SVGID_112_);}
	.st151{fill:url(#SVGID_113_);}
	.st152{fill:url(#SVGID_114_);}
	.st153{fill:url(#SVGID_115_);}
	.st154{fill:url(#SVGID_116_);}
	.st155{fill:url(#SVGID_117_);}
	.st156{fill:url(#SVGID_118_);}
	.st157{fill:url(#SVGID_119_);}
	.st158{fill:url(#SVGID_120_);}
	.st159{fill:url(#SVGID_121_);}
	.st160{fill:url(#SVGID_122_);}
	.st161{fill:url(#SVGID_123_);}
	.st162{fill:url(#SVGID_124_);}
	.st163{fill:url(#SVGID_125_);}
	.st164{fill:url(#SVGID_126_);}
	.st165{fill:url(#SVGID_127_);}
	.st166{fill:url(#SVGID_128_);}
	.st167{fill:url(#SVGID_129_);}
	.st168{fill:url(#SVGID_130_);}
	.st169{fill:url(#SVGID_131_);}
	.st170{fill:url(#SVGID_132_);}
	.st171{fill:url(#SVGID_133_);}
	.st172{fill:url(#SVGID_134_);}
	.st173{fill:url(#SVGID_135_);}
	.st174{fill:url(#SVGID_136_);}
	.st175{fill:url(#SVGID_137_);}
	.st176{fill:url(#SVGID_138_);}
	.st177{fill:url(#SVGID_139_);}
	.st178{fill:url(#SVGID_140_);}
	.st179{fill:url(#SVGID_141_);}
	.st180{fill:url(#SVGID_142_);}
	.st181{fill:url(#SVGID_143_);}
	.st182{fill:url(#SVGID_144_);}
	.st183{fill:url(#SVGID_145_);}
	.st184{fill:url(#SVGID_146_);}
	.st185{fill:url(#SVGID_147_);}
	.st186{fill:url(#SVGID_148_);}
	.st187{fill:url(#SVGID_149_);}
	.st188{fill:url(#SVGID_150_);}
	.st189{fill:url(#SVGID_151_);}
	.st190{fill:url(#SVGID_152_);}
	.st191{fill:url(#SVGID_153_);}
	.st192{fill:url(#SVGID_154_);}
	.st193{fill:url(#SVGID_155_);}
	.st194{fill:url(#SVGID_156_);}
	.st195{fill:url(#SVGID_157_);}
	.st196{fill:url(#SVGID_158_);}
	.st197{fill:url(#SVGID_159_);}
	.st198{fill:url(#SVGID_160_);}
	.st199{fill:url(#SVGID_161_);}
	.st200{fill:url(#SVGID_162_);}
	.st201{fill:url(#SVGID_163_);}
	.st202{fill:url(#SVGID_164_);}
	.st203{fill:url(#SVGID_165_);}
	.st204{fill:url(#SVGID_166_);}
	.st205{fill:url(#SVGID_167_);}
	.st206{fill:url(#SVGID_168_);}
	.st207{fill:url(#SVGID_169_);}
	.st208{fill:url(#SVGID_170_);}
	.st209{fill:url(#SVGID_171_);}
	.st210{fill:url(#SVGID_172_);}
	.st211{fill:url(#SVGID_173_);}
	.st212{fill:url(#SVGID_174_);}
	.st213{fill:url(#SVGID_175_);}
	.st214{fill:url(#SVGID_176_);}
	.st215{fill:url(#SVGID_177_);}
	.st216{fill:url(#SVGID_178_);}
	.st217{fill:url(#SVGID_179_);}
	.st218{fill:url(#SVGID_180_);}
	.st219{fill:url(#SVGID_181_);}
	.st220{fill:url(#SVGID_182_);}
	.st221{fill:url(#SVGID_183_);}
	.st222{fill:url(#SVGID_184_);}
	.st223{fill:url(#SVGID_185_);}
	.st224{fill:url(#SVGID_186_);}
	.st225{fill:url(#SVGID_187_);}
	.st226{fill:url(#SVGID_188_);}
	.st227{fill:url(#SVGID_189_);}
	.st228{fill:url(#SVGID_190_);}
	.st229{fill:url(#SVGID_191_);}
	.st230{fill:url(#SVGID_192_);}
	.st231{fill:url(#SVGID_193_);}
	.st232{fill:url(#SVGID_194_);}
	.st233{fill:url(#SVGID_195_);}
	.st234{fill:url(#SVGID_196_);}
	.st235{fill:url(#SVGID_197_);}
	.st236{fill:url(#SVGID_198_);}
	.st237{fill:url(#SVGID_199_);}
	.st238{fill:url(#SVGID_200_);}
	.st239{fill:url(#SVGID_201_);}
	.st240{fill:url(#SVGID_202_);}
	.st241{fill:url(#SVGID_203_);}
	.st242{fill:url(#SVGID_204_);}
	.st243{fill:#FCEA0D;}
	.st244{opacity:0.9;}
	.st245{fill:#FF7000;}
	.st246{opacity:0.9;fill:#7288FF;}
	.st247{opacity:0.9;fill:#00E173;}
	.st248{opacity:0.9;fill:#FF4E6A;}
	.st249{fill:#FFFFFF;}
	.st250{fill:#FCFF00;}
	.st251{fill:#818BFF;}
	.st252{fill:#7288FF;stroke:#7288FF;stroke-miterlimit:10;}
	.st253{fill:#FFFFFF;stroke:#FFFFFF;stroke-miterlimit:10;}
	.st254{opacity:0.9;fill:#7D85FF;}
	.st255{fill:#9E80BF;}
	.st256{fill:#BE7B80;}
	.st257{fill:#DF7540;}
	.st258{opacity:0.82;fill:#FF6C00;}
	.st259{opacity:0.5;fill:#FFEC00;}
</style>
<g id="Ebene_1">
</g>
<g id="Ebene_2">
	<rect class="st10" width="882.4" height="376.1"/>
	<g>
		<g>
			<g>
				<path class="st253" d="M178.3,302.4c-6.2-0.5-12.3-1.5-18.3-3l1.4-6c5.7,1.4,11.5,2.4,17.3,2.8L178.3,302.4z M196.8,302.3
					l-0.5-6.2c5.8-0.5,11.7-1.4,17.3-2.9l1.4,6C209.1,300.8,203,301.8,196.8,302.3z M142.5,293.4c-5.7-2.5-11.2-5.4-16.4-8.8
					l3.2-5.2c4.9,3.2,10.2,6,15.5,8.3L142.5,293.4z M232.7,293.4l-2.4-5.7c5.4-2.3,10.6-5.1,15.5-8.3l3.2,5.2
					C243.9,287.9,238.4,290.9,232.7,293.4z M111.3,273.2c-4.6-4.2-8.9-8.8-12.8-13.7l4.7-3.9c3.7,4.6,7.7,9,12.1,13L111.3,273.2z
					 M263.9,273.1l-4-4.6c4.4-4,8.4-8.4,12.1-13l4.7,3.9C272.8,264.3,268.5,268.9,263.9,273.1z M88.1,243.8
					c-3-5.5-5.6-11.3-7.7-17.3l5.7-2.1c1.9,5.6,4.4,11.1,7.2,16.3L88.1,243.8z M287,243.7l-5.3-3c2.9-5.2,5.3-10.7,7.2-16.3l5.7,2.1
					C292.6,232.4,290,238.2,287,243.7z M75.7,208.2c-1-6.2-1.6-12.6-1.6-18.9l6.1,0c0,6,0.5,12,1.5,17.8L75.7,208.2z M299.3,208
					l-6-1c1-5.9,1.5-11.9,1.5-17.8l0-0.2l6.1,0l0,0.2C300.9,195.5,300.4,201.8,299.3,208z M81.6,171.4l-6-1c1-6.2,2.6-12.4,4.7-18.4
					l5.7,2.1C84.1,159.7,82.6,165.5,81.6,171.4z M293.3,171.1c-1-5.9-2.5-11.7-4.5-17.3l5.7-2.1c2.1,5.9,3.7,12.1,4.7,18.3
					L293.3,171.1z M93.3,137.7l-5.3-3c3-5.5,6.5-10.8,10.4-15.7l4.7,3.9C99.4,127.5,96.1,132.5,93.3,137.7z M281.6,137.5
					c-2.9-5.2-6.2-10.2-9.8-14.8l4.7-3.9c3.9,4.9,7.4,10.2,10.4,15.7L281.6,137.5z M115.1,109.9l-4-4.6c4.6-4.2,9.6-8,14.8-11.4
					l3.2,5.2C124.2,102.3,119.5,105.9,115.1,109.9z M259.7,109.7c-4.4-4-9.1-7.6-14-10.8l3.2-5.2c5.2,3.4,10.2,7.2,14.8,11.4
					L259.7,109.7z M144.6,90.7l-2.4-5.7c5.7-2.5,11.6-4.5,17.6-6l1.4,6C155.6,86.4,150,88.4,144.6,90.7z M230.1,90.6
					c-5.4-2.3-11-4.2-16.7-5.6l1.4-6c6,1.5,11.9,3.5,17.6,5.9L230.1,90.6z M178.6,82.1l-0.5-6.2c3.1-0.3,6.3-0.4,9.4-0.4
					c0,0,0,0,0,0c3,0,6.1,0.1,9.1,0.4l-0.5,6.2c-2.8-0.2-5.7-0.3-8.6-0.3c0,0,0,0,0,0C184.5,81.8,181.5,81.9,178.6,82.1z"/>
			</g>
		</g>
		<g>
			<path class="st10" d="M188.5,281c-51.4,0-93.1-41.2-93.1-92.1s41.7-92.1,93.1-92.1"/>
			<path class="st8" d="M188.5,96.8c50.3,0,91.2,41.2,91.2,92.1s-40.8,92.1-91.2,92.1"/>
		</g>
		<g>
			<path class="st249" d="M176.6,182.4l4.7,4.7l-12.7,12.9l-7,6l0.1,0.3l13.5-0.5h48.6v6.6h-48.6l-13.5-0.5l-0.1,0.3l7,6l12.7,12.9
				l-4.7,4.7L150,209L176.6,182.4z M198.4,195.5l-4.7-4.7l12.7-12.9l7-6l-0.1-0.3l-13.5,0.5h-48.6v-6.6h48.6l13.5,0.5l0.1-0.3l-7-6
				l-12.7-12.9l4.7-4.7l26.6,26.6L198.4,195.5z"/>
		</g>
	</g>
	<g>
		<g>
			<g>
				<path class="st249" d="M352.8,152.1H344v-7h8.8c0-13.2,7.3-20.7,17.6-20.7c8.8,0,11.7,4.3,11.7,4.3v7.7c0,0-4.1-4.3-10.5-4.3
					c-6.4,0-10.2,3.4-10.2,13h18.6v7h-18.6v29.6h-8.6V152.1z"/>
				<path class="st249" d="M384.9,161c0-12.1,10.1-21.9,22.6-21.9c12.6,0,22.6,9.8,22.6,21.9s-10.1,21.8-22.6,21.8
					C395,182.9,384.9,173.1,384.9,161z M421.9,161c0-7.8-6.2-14.2-14.3-14.2s-14.3,6.3-14.3,14.2c0,7.8,6.2,14.1,14.3,14.1
					S421.9,168.8,421.9,161z"/>
				<path class="st249" d="M439.8,140.2h8.6v8c1.9-5,8.2-9.2,17-9.2v7.1c-10.5,0-16.8,6-17,14.8v20.7h-8.6V140.2z"/>
				<path class="st249" d="M471.8,164.9v-24.6h8.6v24.9c0,0-0.5,10.2,10.2,10.2c10.6,0,10.2-10.2,10.2-10.2v-24.9h8.6v24.6
					c0,17.6-13.6,18-18.8,18S471.8,182.5,471.8,164.9z"/>
				<path class="st249" d="M584.7,156.2v25.4H576v-24.6c0-6.6-2.4-10.4-8.1-10.4c-5.2,0-10.4,3.9-10.4,11.7v23.3h-8.6v-24.6
					c0-6.6-2.4-10.4-8.1-10.4c-4.8,0-9.7,3.4-10.3,10.1v24.9h-8.6v-41.4h8.6v5c0.5-1.1,3.3-6.2,11.6-6.2c5.8,0,10.4,2.3,13,6.8
					c1.9-3.6,6.2-6.8,14.1-6.8C578.5,139,584.7,144.9,584.7,156.2z"/>
				<path class="st249" d="M614.3,161c0-12.1,10.1-21.9,22.6-21.9c12.6,0,22.6,9.8,22.6,21.9s-10.1,21.8-22.6,21.8
					C624.4,182.9,614.3,173.1,614.3,161z M651.2,161c0-7.8-6.2-14.2-14.3-14.2s-14.3,6.3-14.3,14.2c0,7.8,6.2,14.1,14.3,14.1
					S651.2,168.8,651.2,161z"/>
				<path class="st249" d="M669.2,140.3h8.6v4c2.9-2.9,7.9-5.2,13.9-5.2c12.6,0,21.6,9.8,21.6,21.9s-9,21.8-21.6,21.8
					c-6.8,0-11.2-2.6-13.9-5.6v21.4h-8.6V140.3z M704.9,161c0-7.8-5.3-14.2-13-14.2c-7.8,0-14.6,5.2-14.6,14.2
					c0,9,6.8,14.2,14.6,14.2C699.6,175.2,704.9,168.9,704.9,161z"/>
				<path class="st249" d="M719.7,160.9c0-12.4,9.5-21.8,22.3-21.8c12,0,19,9.9,19,19.9v4h-33c1,6.4,5.4,12.2,14.8,12.2
					c10.2,0,16.3-4.3,16.4-4.3v7.8c0,0-4.5,4.2-16.6,4.2C728,182.9,719.7,172.9,719.7,160.9z M752.4,156.3
					c-0.3-3.2-2.4-10.2-11.4-10.2s-12.1,7-12.6,10.2H752.4z"/>
				<path class="st249" d="M809.2,156.2v25.4h-8.6v-24.6c0-6.6-3.6-10.4-9.3-10.4c-6,0-11.6,3.9-11.6,11.7v23.3h-8.6v-41.4h8.6v5.1
					c0,0,2.8-6.4,12.9-6.4C801.9,139,809.2,144.9,809.2,156.2z"/>
			</g>
		</g>
		<g>
			<path class="st8" d="M347.3,231.6c0-12.4,9.5-21.8,22.3-21.8c12,0,19,9.9,19,19.9v4h-33c1,6.4,5.4,12.2,14.8,12.2
				c10.2,0,16.3-4.3,16.4-4.3v7.8c0,0-4.5,4.2-16.6,4.2C355.6,253.6,347.3,243.6,347.3,231.6z M379.9,227
				c-0.3-3.2-2.4-10.2-11.4-10.2s-12.1,7-12.6,10.2H379.9z"/>
			<path class="st8" d="M395,231.7c0-12.1,9-21.9,21.6-21.9c6,0,11,2.3,13.9,5.2v-17l8.6-1.4v55.8h-8.8l0.1-4.2
				c-2.7,2.8-7.1,5.4-13.8,5.4C403.9,253.6,395,243.8,395,231.7z M431,231.6c0-9-6.1-14.2-13.8-14.2c-7.8,0-13.8,6.3-13.8,14.2
				c0,7.8,6.1,14.2,13.8,14.2C424.9,245.9,431,240.7,431,231.6z"/>
			<path class="st8" d="M451.1,235.6V211h8.6v24.9c0,0-0.5,10.2,10.2,10.2c10.6,0,10.2-10.2,10.2-10.2V211h8.6v24.6
				c0,17.6-13.6,18-18.8,18S451.1,253.2,451.1,235.6z"/>
			<path class="st8" d="M497.5,231.6c0-12.1,9.2-21.8,22.6-21.8c5.1,0,11.1,1.5,14.8,5v8.9c0,0-4.9-6.2-14.8-6.2
				c-8.2,0-14.2,6.4-14.2,14.2c0,8.6,5.8,14.3,15,14.3c9.7,0,14.8-4.3,14.8-4.3v8c-3.8,3-10.6,3.9-14.8,3.9
				C505.5,253.6,497.5,243.7,497.5,231.6z"/>
			<path class="st8" d="M541.8,231.7c0-12.1,9-21.9,21.6-21.9c6,0,11,2.3,13.9,5.2v-4h8.6v41.4h-8.7l0.1-4.2
				c-2.7,2.8-7.1,5.4-13.8,5.4C550.7,253.6,541.8,243.8,541.8,231.7z M577.8,231.6c0-9-6.1-14.2-13.8-14.2
				c-7.8,0-13.6,6.3-13.6,14.2c0,7.8,5.8,14.2,13.6,14.2C571.7,245.9,577.8,240.7,577.8,231.6z"/>
			<path class="st8" d="M608.6,216.9h-15.9l24.6-20.2v13.2h14.2v7h-14.2v35.4h-8.6V216.9z"/>
			<path class="st8" d="M637.9,200.2c0-2.8,2.2-5,4.9-5c2.8,0,5,2.2,5,5c0,2.7-2.2,4.9-5,4.9C640.1,205.1,637.9,202.9,637.9,200.2z
				 M638.9,210.9h8.6v41.4h-8.6V210.9z"/>
			<path class="st8" d="M657.4,231.7c0-12.1,10.1-21.9,22.6-21.9s22.6,9.8,22.6,21.9s-10.1,21.8-22.6,21.8S657.4,243.8,657.4,231.7z
				 M694.3,231.7c0-7.8-6.2-14.2-14.3-14.2s-14.3,6.3-14.3,14.2c0,7.8,6.2,14.1,14.3,14.1S694.3,239.5,694.3,231.7z"/>
			<path class="st8" d="M750.9,226.9v25.4h-8.6v-24.6c0-6.6-3.6-10.4-9.3-10.4c-6,0-11.6,3.9-11.6,11.7v23.3h-8.6V211h8.6v5.1
				c0,0,2.8-6.4,12.9-6.4C743.5,209.7,750.9,215.6,750.9,226.9z"/>
		</g>
	</g>
</g>
</svg>
